<svg width="157" height="128" viewBox="0 0 157 128" fill="none" xmlns="http://www.w3.org/2000/svg">
<path d="M31.9333 127.447C41.0898 128.466 50.3032 125.76 57.2978 119.855C60.6718 116.725 63.0729 112.953 65.1725 109.128C67.1488 105.125 68.6453 101.192 70.1417 97.2582C73.0114 89.2137 74.8532 80.8293 76.5168 72.5686C74.2501 80.7213 71.682 88.8198 68.3875 96.6326C66.7677 100.388 64.9697 104.268 62.7469 107.915C60.7023 111.439 58.1779 115.033 54.9689 117.259C48.4959 122.012 39.9273 123.745 32.3887 122.394C24.6717 121.167 17.5599 116.624 13.2455 110.405C8.75278 104.309 6.93426 96.3576 8.25447 89.1247C9.45141 81.7141 13.6088 75.1453 19.3687 70.8866C24.2922 66.9448 32.764 66.5956 40.5777 66.4396C54.4641 66.2826 67.8554 68.8379 81.48 70.9682C82.9877 71.2384 84.6738 71.3849 86.1815 71.6551C92.8705 72.5425 99.9711 72.8813 106.825 72.8646C109.772 72.9259 112.775 72.6858 115.599 72.5694C120.163 72.2982 124.605 71.8492 129.157 70.7975C131.433 70.2716 133.764 69.4444 136.094 68.6172C138.302 67.6122 140.921 66.0586 142.759 64.5206C150.288 58.2447 155.242 49.0176 156.043 39.513C157.022 29.8847 153.971 20.1567 147.957 13.0101C142.122 5.73985 133.324 1.05101 124.291 0.210352C115.134 -0.80801 105.921 1.89816 98.9263 7.80298C95.5522 10.9331 93.1511 14.7044 91.0515 18.5297C89.0752 22.5328 87.5787 26.4662 86.0823 30.3996C83.2126 38.4441 81.3708 46.8285 79.7073 55.0891C81.9739 46.9365 84.542 38.838 87.8365 31.0252C89.4563 27.2695 91.2543 23.3901 93.4772 19.7425C95.5217 16.2185 98.0461 12.6249 101.255 10.3989C107.728 5.64552 116.297 3.9131 123.835 5.26402C131.552 6.49127 138.664 11.0336 142.979 17.2532C147.471 23.3492 149.29 31.3002 147.97 38.5331C146.773 45.9437 142.615 52.5125 136.855 56.7712C131.932 60.713 123.46 61.0622 115.646 61.2182C101.938 61.2515 88.3686 58.8198 75.0455 56.7436C63.71 54.8679 52.0995 54.4991 40.6255 55.0884C36.0605 55.3596 31.6188 55.8086 27.0671 56.8603C24.7913 57.3862 22.4604 58.2134 20.1296 59.0406C17.922 60.0456 15.3028 61.5992 13.465 63.1372C5.93563 69.4131 0.981605 78.6402 0.180974 88.1448C-0.797933 97.7731 2.25328 107.501 8.26695 114.648C14.1023 121.918 22.7769 126.429 31.9333 127.447Z" fill="#306049"/>
</svg>
