<svg width="27" height="27" viewBox="0 0 27 27" fill="none" xmlns="http://www.w3.org/2000/svg">
<path fill-rule="evenodd" clip-rule="evenodd" d="M18 3.64844H9C5.8934 3.64844 3.375 6.16684 3.375 9.27344V18.2734C3.375 21.38 5.8934 23.8984 9 23.8984H18C21.1066 23.8984 23.625 21.38 23.625 18.2734V9.27344C23.625 6.16684 21.1066 3.64844 18 3.64844ZM21.6563 18.2734C21.6501 20.2901 20.0167 21.9235 18 21.9297H9C6.98327 21.9235 5.34993 20.2901 5.34375 18.2734V9.27344C5.34993 7.25671 6.98327 5.62336 9 5.61719H18C20.0167 5.62336 21.6501 7.25671 21.6563 9.27344V18.2734ZM18.8438 9.55469C19.4651 9.55469 19.9688 9.051 19.9688 8.42969C19.9688 7.80837 19.4651 7.30469 18.8438 7.30469C18.2224 7.30469 17.7188 7.80837 17.7188 8.42969C17.7188 9.051 18.2224 9.55469 18.8438 9.55469ZM13.5 8.71094C10.7041 8.71094 8.4375 10.9775 8.4375 13.7734C8.4375 16.5694 10.7041 18.8359 13.5 18.8359C16.296 18.8359 18.5625 16.5694 18.5625 13.7734C18.5655 12.4299 18.0331 11.1405 17.083 10.1904C16.133 9.24035 14.8436 8.70795 13.5 8.71094ZM10.4063 13.7734C10.4063 15.4821 11.7914 16.8672 13.5 16.8672C15.2087 16.8672 16.5938 15.4821 16.5938 13.7734C16.5938 12.0648 15.2087 10.6797 13.5 10.6797C11.7914 10.6797 10.4063 12.0648 10.4063 13.7734Z" fill="white"/>
</svg>
