<svg width="40" height="40" viewBox="0 0 40 40" fill="none" xmlns="http://www.w3.org/2000/svg">
<path fill-rule="evenodd" clip-rule="evenodd" d="M26.065 5.28271H13.0322C8.53359 5.28271 4.88672 8.92958 4.88672 13.4282V26.461C4.88672 30.9596 8.53359 34.6065 13.0322 34.6065H26.065C30.5636 34.6065 34.2105 30.9596 34.2105 26.461V13.4282C34.2105 8.92958 30.5636 5.28271 26.065 5.28271ZM31.3596 26.461C31.3506 29.3813 28.9853 31.7466 26.065 31.7556H13.0322C10.1118 31.7466 7.74658 29.3813 7.73764 26.461V13.4282C7.74658 10.5078 10.1118 8.14258 13.0322 8.13364H26.065C28.9853 8.14258 31.3506 10.5078 31.3596 13.4282V26.461ZM27.2868 13.8355C28.1866 13.8355 28.9159 13.1061 28.9159 12.2064C28.9159 11.3067 28.1866 10.5773 27.2868 10.5773C26.3871 10.5773 25.6577 11.3067 25.6577 12.2064C25.6577 13.1061 26.3871 13.8355 27.2868 13.8355ZM19.5486 12.6137C15.4998 12.6137 12.2177 15.8958 12.2177 19.9446C12.2177 23.9934 15.4998 27.2755 19.5486 27.2755C23.5974 27.2755 26.8795 23.9934 26.8795 19.9446C26.8839 17.999 26.1129 16.1318 24.7371 14.7561C23.3613 13.3803 21.4942 12.6093 19.5486 12.6137ZM15.0686 19.9446C15.0686 22.4189 17.0743 24.4246 19.5486 24.4246C22.0229 24.4246 24.0286 22.4189 24.0286 19.9446C24.0286 17.4703 22.0229 15.4646 19.5486 15.4646C17.0743 15.4646 15.0686 17.4703 15.0686 19.9446Z" fill="#1B1B1B"/>
</svg>
