<svg width="70" height="65" viewBox="0 0 70 65" fill="none" xmlns="http://www.w3.org/2000/svg">
<path d="M12.8609 4.68749C10.5183 2.34486 6.88598 2.5697 4.74313 4.71255C2.60028 6.85539 2.58973 10.2734 4.50511 12.6173C6.63477 14.747 10.48 14.7351 12.6229 12.5923C14.7657 10.4494 14.9906 6.81715 12.8609 4.68749ZM25.8347 23.2327L28.1773 25.5753C28.8202 24.9324 29.6747 24.9298 30.3136 25.5687L31.1654 26.4206C31.8043 27.0595 31.8017 27.914 31.1588 28.5568L54.3708 52.1974L62.5136 44.0545L64.8562 46.3972L62.2848 48.9686L64.6274 51.3112L67.1989 48.7398L69.3285 50.8694L61.1857 59.0123L62.8894 60.716C64.8061 62.6327 61.8061 65.6327 59.8894 63.716L28.1588 31.5568C27.516 32.1997 26.6615 32.2023 26.0226 31.5634L25.1707 30.7115C24.5318 30.0726 24.5345 29.2181 25.1773 28.5753L22.8347 26.2327C21.9789 26.6625 21.123 27.0924 20.2685 27.0951C20.0503 28.5911 19.1905 30.3028 17.9048 31.5885C14.6905 34.8027 9.13628 34.8199 5.72883 31.4124C2.32137 28.005 2.33852 22.4507 5.98004 19.2351C6.83718 18.378 7.69432 17.5208 8.76311 17.3039C6.62685 17.3105 4.06598 16.4639 2.36226 14.7602C-0.830912 11.1385 -0.815085 6.01144 2.61347 2.58289C6.04203 -0.845671 11.5963 -0.862819 15.0037 2.54464C16.7075 4.24836 17.3411 6.59627 17.3345 8.73252C17.7644 7.8767 18.4086 6.80659 19.2657 5.94945C22.6943 2.52089 28.2485 2.50375 31.4417 6.12549C34.8491 9.53295 34.619 14.8742 31.4048 18.0885C30.1191 19.3742 28.8347 20.2327 27.1243 20.6652C26.6945 21.521 26.4775 22.5898 25.8347 23.2327ZM13.4642 16.8622C17.0938 17.4918 19.8624 20.2604 20.4921 23.89C22.2024 23.4575 23.4881 22.1718 23.7063 20.6758C20.0767 20.0461 17.3081 17.2775 16.8927 13.4336C15.1824 13.8661 13.8967 15.1518 13.4642 16.8622ZM20.107 10.2193C23.7367 10.849 26.7182 13.8305 27.1349 17.2472C30.9841 15.9536 32.2804 11.2499 29.2988 8.26834C26.3173 5.28682 21.4006 6.37011 20.107 10.2193ZM19.6705 13.2114C20.0912 15.3463 22.0079 17.263 24.1428 17.6837C23.7222 15.5487 22.0184 13.845 19.6705 13.2114ZM17.0635 27.3186C13.4338 26.6889 10.4523 23.7074 10.0369 19.8635C6.4007 21.37 4.89015 26.2881 7.87168 29.2696C10.8532 32.2511 15.7699 31.1678 17.0635 27.3186ZM17.5 24.3265C16.8664 21.9786 15.1626 20.2749 13.0277 19.8542C13.4484 21.9892 15.1521 23.6929 17.5 24.3265Z" fill="#E3B891"/>
</svg>
