<svg width="40" height="40" viewBox="0 0 40 40" fill="none" xmlns="http://www.w3.org/2000/svg">
<path fill-rule="evenodd" clip-rule="evenodd" d="M7.33037 5.28271C5.98077 5.28271 4.88672 6.37677 4.88672 7.72636V32.1628C4.88672 33.5124 5.98077 34.6065 7.33037 34.6065H31.7668C33.1164 34.6065 34.2105 33.5124 34.2105 32.1628V7.72636C34.2105 6.37677 33.1164 5.28271 31.7668 5.28271H7.33037ZM13.8806 11.8035C13.8898 13.3614 12.7237 14.3213 11.34 14.3144C10.0364 14.3075 8.90012 13.2697 8.90699 11.8058C8.91387 10.429 10.0021 9.32247 11.4156 9.35455C12.8497 9.38663 13.8898 10.4382 13.8806 11.8035ZM20.0043 16.2983H15.899H15.8967V30.2431H20.2356V29.9178C20.2356 29.2989 20.2351 28.6798 20.2346 28.0606C20.2333 26.409 20.2318 24.7557 20.2403 23.1046C20.2426 22.7036 20.2608 22.2868 20.364 21.9041C20.751 20.4745 22.0364 19.5513 23.4705 19.7783C24.3914 19.9224 25.0007 20.4563 25.2573 21.3246C25.4155 21.8674 25.4865 22.4516 25.4933 23.0176C25.5119 24.7242 25.5093 26.4309 25.5067 28.1377C25.5057 28.7401 25.5048 29.3429 25.5048 29.9453V30.2408H29.8575V29.9064C29.8575 29.17 29.8572 28.4338 29.8567 27.6976C29.8559 25.8576 29.8549 24.0175 29.8598 22.1768C29.8621 21.3451 29.7728 20.5251 29.5689 19.7209C29.2642 18.525 28.6343 17.5353 27.6102 16.8206C26.8839 16.312 26.0867 15.9844 25.1955 15.9478C25.0941 15.9436 24.9917 15.938 24.889 15.9325C24.4333 15.9078 23.9701 15.8828 23.5345 15.9707C22.2883 16.2204 21.1933 16.7908 20.3663 17.7965C20.2701 17.9118 20.1761 18.0289 20.0359 18.2037L20.0043 18.2433V16.2983ZM9.25537 30.2477H13.5738V16.3074H9.25537V30.2477Z" fill="#1B1B1B"/>
</svg>
