<svg width="27" height="27" viewBox="0 0 27 27" fill="none" xmlns="http://www.w3.org/2000/svg">
<path fill-rule="evenodd" clip-rule="evenodd" d="M5.0625 3.64844C4.13052 3.64844 3.375 4.40395 3.375 5.33594V22.2109C3.375 23.1429 4.13052 23.8984 5.0625 23.8984H21.9375C22.8695 23.8984 23.625 23.1429 23.625 22.2109V5.33594C23.625 4.40395 22.8695 3.64844 21.9375 3.64844H5.0625ZM9.58586 8.1515C9.59219 9.22728 8.78694 9.89015 7.83138 9.8854C6.9312 9.88066 6.14652 9.164 6.15126 8.15308C6.15601 7.20228 6.90748 6.43816 7.8836 6.46031C8.87394 6.48246 9.59219 7.20861 9.58586 8.1515ZM13.8147 11.2554H10.9797H10.9781V20.8852H13.9744V20.6606C13.9744 20.2332 13.9741 19.8057 13.9737 19.3781C13.9728 18.2376 13.9718 17.0958 13.9777 15.9556C13.9793 15.6787 13.9919 15.3909 14.0631 15.1266C14.3304 14.1394 15.218 13.5019 16.2083 13.6586C16.8443 13.7581 17.265 14.1268 17.4422 14.7264C17.5515 15.1013 17.6005 15.5047 17.6052 15.8955C17.6181 17.0741 17.6163 18.2526 17.6145 19.4313C17.6138 19.8473 17.6131 20.2636 17.6131 20.6796V20.8837H20.619V20.6527C20.619 20.1442 20.6188 19.6358 20.6184 19.1274C20.6179 17.8567 20.6172 16.5861 20.6206 15.3149C20.6222 14.7406 20.5605 14.1743 20.4197 13.619C20.2093 12.7931 19.7742 12.1097 19.0671 11.6161C18.5655 11.2649 18.015 11.0387 17.3996 11.0134C17.3295 11.0104 17.2589 11.0066 17.1879 11.0028C16.8732 10.9858 16.5534 10.9685 16.2525 11.0292C15.3919 11.2016 14.6358 11.5956 14.0646 12.29C13.9983 12.3697 13.9334 12.4506 13.8365 12.5713L13.8147 12.5986V11.2554ZM6.39185 20.8884H9.37397V11.2617H6.39185V20.8884Z" fill="white"/>
</svg>
