<svg width="35" height="35" viewBox="0 0 35 35" fill="none" xmlns="http://www.w3.org/2000/svg">
<path d="M31.0731 3.55561C30.9048 3.4103 30.7001 3.31366 30.4809 3.27611C30.2618 3.23855 30.0366 3.26149 29.8295 3.34247L2.31678 14.1094C1.92686 14.2611 1.59675 14.5353 1.37614 14.8907C1.15554 15.2462 1.05638 15.6637 1.09359 16.0804C1.13081 16.4971 1.30238 16.8904 1.58248 17.2012C1.86259 17.5119 2.23606 17.7233 2.64667 17.8034L9.77534 19.2031V27.1517C9.77393 27.5847 9.9026 28.0081 10.1447 28.3671C10.3867 28.726 10.731 29.004 11.1329 29.165C11.5342 29.3289 11.9755 29.3682 12.3995 29.2779C12.8234 29.1876 13.2104 28.9718 13.51 28.6587L16.9474 25.0936L22.4008 29.8669C22.7943 30.2159 23.3017 30.409 23.8277 30.4099C24.0581 30.4098 24.2872 30.3736 24.5065 30.3027C24.8648 30.189 25.1871 29.9834 25.4412 29.7064C25.6954 29.4294 25.8725 29.0906 25.955 28.7238L31.4654 4.75164C31.5147 4.53544 31.5042 4.30991 31.4351 4.09921C31.366 3.88851 31.2409 3.7006 31.0731 3.55561ZM23.8304 28.2378L12.6059 18.3953L28.7611 6.81652L23.8304 28.2378Z" fill="#1B1B1B"/>
</svg>
