<svg width="24" height="24" viewBox="0 0 24 24" fill="none" xmlns="http://www.w3.org/2000/svg">
<path d="M21.4581 2.45514C21.3419 2.3548 21.2005 2.28806 21.0492 2.26213C20.8979 2.23619 20.7423 2.25203 20.5994 2.30795L1.59998 9.74327C1.33071 9.84797 1.10275 10.0373 0.950407 10.2828C0.798064 10.5283 0.729587 10.8166 0.755286 11.1043C0.780984 11.3921 0.899467 11.6637 1.0929 11.8783C1.28633 12.0929 1.54423 12.2389 1.82779 12.2942L6.7506 13.2608V18.7498C6.74963 19.0488 6.83848 19.3412 7.00564 19.5891C7.1728 19.837 7.41056 20.029 7.6881 20.1401C7.96522 20.2533 8.26997 20.2805 8.56274 20.2181C8.8555 20.1557 9.12272 20.0067 9.32967 19.7905L11.7034 17.3286L15.4694 20.6248C15.7411 20.8658 16.0915 20.9992 16.4547 20.9998C16.6138 20.9997 16.772 20.9747 16.9234 20.9258C17.1709 20.8472 17.3934 20.7053 17.5689 20.514C17.7444 20.3227 17.8668 20.0887 17.9237 19.8355L21.729 3.28108C21.7631 3.13178 21.7558 2.97603 21.7081 2.83053C21.6604 2.68503 21.574 2.55527 21.4581 2.45514ZM16.4565 19.4998L8.70529 12.703L19.8615 4.70702L16.4565 19.4998Z" fill="white"/>
</svg>
