<svg width="35" height="35" viewBox="0 0 35 35" fill="none" xmlns="http://www.w3.org/2000/svg">
<g clip-path="url(#clip0_2628_3772)">
<path d="M18.9774 18.8252C19.6437 18.8253 20.3074 18.9092 20.9534 19.0749C20.8674 20.3323 20.4496 21.3723 19.7301 22.0784C19.059 22.7408 18.1605 23.1121 17.2246 23.1138C15.4341 23.1138 14.9619 21.9528 14.9619 21.2651C14.9619 19.591 17.0436 18.8252 18.9774 18.8252ZM31.8563 18.8252C31.8563 28.7992 26.4425 34.7542 17.3754 34.7542C8.30827 34.7542 2.89453 28.7992 2.89453 18.8252C2.89453 8.85122 8.30827 2.89624 17.3754 2.89624C26.4425 2.89624 31.8563 8.85122 31.8563 18.8252ZM8.92823 18.8252C8.92823 12.2285 11.6917 9.02276 17.3754 9.02276C21.3486 9.02276 23.8616 10.5666 25.0397 13.7448C25.1529 14.0494 25.3807 14.296 25.6729 14.4301C25.9651 14.5642 26.2979 14.575 26.5979 14.4601C26.898 14.3451 27.1407 14.1138 27.2728 13.8171C27.405 13.5204 27.4156 13.1825 27.3023 12.8779C25.355 7.66574 20.8297 6.57215 17.3754 6.57215C13.4384 6.57215 10.5091 7.90467 8.66878 10.533C7.23879 12.5746 6.51475 15.3637 6.51475 18.8252C6.51475 22.2867 7.23879 25.0758 8.66878 27.1175C10.5091 29.7457 13.4384 31.0782 17.3754 31.0782C21.0635 31.0782 23.382 29.7304 24.6777 28.6001C26.3008 27.1833 27.2707 25.2473 27.2707 23.4201C27.2707 21.2299 26.2766 19.3169 24.471 18.0333C24.0998 17.7711 23.7078 17.5405 23.299 17.3441C22.9837 15.1003 21.7906 13.4002 19.9292 12.5853C17.742 11.6265 14.9619 12.0753 13.3343 13.6468C13.1019 13.8702 12.9664 14.1782 12.9576 14.5031C12.9489 14.8279 13.0675 15.143 13.2876 15.379C13.5076 15.615 13.811 15.7526 14.1309 15.7615C14.4508 15.7704 14.7612 15.6499 14.9936 15.4265C15.8127 14.6393 17.5262 14.2012 18.9758 14.8368C19.7143 15.1537 20.2986 15.7553 20.6004 16.5094C20.0636 16.4229 19.5209 16.3794 18.9774 16.3792C15.1927 16.3746 12.5484 18.3887 12.5484 21.2651C12.5484 23.7571 14.5094 25.5644 17.2246 25.5644C18.7878 25.5603 20.2884 24.9404 21.4104 23.8352C22.1194 23.1321 22.9355 21.9666 23.2462 20.1593C23.7553 20.5291 24.1681 21.0192 24.4488 21.5874C24.7295 22.1556 24.8697 22.7846 24.8572 23.4201C24.8572 25.52 22.4799 28.6276 17.3754 28.6276C11.6917 28.6276 8.92823 25.4219 8.92823 18.8252Z" fill="#1B1B1B"/>
</g>
<defs>
<clipPath id="clip0_2628_3772">
<rect width="34.7541" height="34.7541" fill="white"/>
</clipPath>
</defs>
</svg>
