<svg width="24" height="24" viewBox="0 0 24 24" fill="none" xmlns="http://www.w3.org/2000/svg">
<path d="M13.1062 13C13.5664 13.0001 14.0247 13.058 14.4708 13.1724C14.4115 14.0408 14.1229 14.7589 13.626 15.2465C13.1626 15.704 12.5421 15.9604 11.8958 15.9615C10.6594 15.9615 10.3333 15.1598 10.3333 14.6849C10.3333 13.5288 11.7708 13 13.1062 13ZM22 13C22 19.8877 18.2615 24 12 24C5.73854 24 2 19.8877 2 13C2 6.11231 5.73854 2 12 2C18.2615 2 22 6.11231 22 13ZM6.16667 13C6.16667 8.44452 8.075 6.23077 12 6.23077C14.7437 6.23077 16.4792 7.29692 17.2927 9.49163C17.3709 9.70202 17.5282 9.87226 17.73 9.96489C17.9318 10.0575 18.1615 10.065 18.3687 9.98558C18.576 9.90619 18.7436 9.74648 18.8348 9.54158C18.9261 9.33668 18.9334 9.10337 18.8552 8.89298C17.5104 5.29365 14.3854 4.53846 12 4.53846C9.28125 4.53846 7.25833 5.45865 5.9875 7.27365C5 8.68356 4.5 10.6096 4.5 13C4.5 15.3904 5 17.3164 5.9875 18.7263C7.25833 20.5413 9.28125 21.4615 12 21.4615C14.5469 21.4615 16.1479 20.5308 17.0427 19.7502C18.1635 18.7718 18.8333 17.4349 18.8333 16.1731C18.8333 14.6606 18.1469 13.3395 16.9 12.4532C16.6436 12.272 16.3729 12.1128 16.0906 11.9772C15.8729 10.4277 15.049 9.25365 13.7635 8.69096C12.2531 8.02885 10.3333 8.33875 9.20937 9.42394C9.04886 9.57823 8.95529 9.79094 8.94923 10.0153C8.94318 10.2396 9.02514 10.4572 9.17708 10.6202C9.32903 10.7832 9.53852 10.8782 9.75946 10.8843C9.9804 10.8905 10.1947 10.8073 10.3552 10.653C10.9208 10.1093 12.1042 9.80683 13.1052 10.2458C13.6151 10.4646 14.0187 10.88 14.2271 11.4008C13.8564 11.3411 13.4816 11.311 13.1062 11.3109C10.4927 11.3077 8.66667 12.6986 8.66667 14.6849C8.66667 16.4058 10.0208 17.6538 11.8958 17.6538C12.9753 17.651 14.0116 17.2229 14.7865 16.4597C15.276 15.9742 15.8396 15.1693 16.0542 13.9213C16.4058 14.1766 16.6908 14.5151 16.8847 14.9075C17.0785 15.2998 17.1753 15.7342 17.1667 16.1731C17.1667 17.6232 15.525 19.7692 12 19.7692C8.075 19.7692 6.16667 17.5555 6.16667 13Z" fill="white"/>
</svg>
