<svg width="131" height="188" viewBox="0 0 131 188" fill="none" xmlns="http://www.w3.org/2000/svg">
<path d="M105.35 104.936C101.817 106.439 98.0898 107.821 94.4598 109.784C93.1556 110.656 92.0972 111.85 91.3864 113.25C90.0554 115.48 88.9664 117.88 87.7806 120.159C87.1714 121.319 86.3506 122.355 85.3606 123.213C84.976 123.452 84.5386 123.592 84.087 123.622C83.6355 123.651 83.1836 123.569 82.7712 123.383C82.5097 123.043 82.3354 122.645 82.2637 122.222C82.1919 121.799 82.2249 121.365 82.3598 120.959C84.5136 116.789 86.6916 112.596 89.2084 108.645C90.3734 107.11 91.9045 105.893 93.6612 105.106C96.8314 103.506 100.171 102.245 103.341 100.888C103.474 100.54 103.539 100.17 103.535 99.7971C101.526 92.4039 102.301 90.1011 108.714 85.956C112.924 83.2169 117.426 80.9141 121.612 78.1508C126.21 75.1692 126.452 74.1269 123.524 69.5213C121.948 67.0442 121.108 64.1687 121.104 61.2312C121.104 57.8861 120.644 54.541 120.354 50.7596L109.706 51.9958L101.962 52.82C99.5564 53.2854 97.0697 53.0793 94.7734 52.2242C92.4772 51.3692 90.4599 49.8981 88.9422 47.972C88.6357 47.499 88.2392 47.0912 87.7753 46.7718C87.3114 46.4525 86.7891 46.2278 86.2385 46.1108C85.6879 45.9937 85.1196 45.9865 84.5661 46.0896C84.0127 46.1926 83.485 46.404 83.0132 46.7115C77.8344 48.9658 72.5346 50.9777 66.7266 53.329L69.9452 59.3405C74.0108 67.0246 73.4542 69.4244 66.3878 74.3451C62.54 77.0357 58.7164 79.7991 54.7476 82.3443C53.0269 83.423 51.5718 84.8771 50.4906 86.598C49.4095 88.3189 48.7304 90.2621 48.504 92.2827C47.8748 96.2823 47.294 100.258 46.6406 104.572C51.0934 105.76 55.5946 106.996 60.0716 108.16C67.1864 110.123 67.743 111.893 63.4112 117.856C61.403 120.611 59.5371 123.467 57.821 126.413C57.1658 127.697 56.7844 129.103 56.7011 130.543C56.6178 131.983 56.8343 133.424 57.337 134.775C57.7546 136.827 58.8071 138.695 60.345 140.114C61.8828 141.532 63.8279 142.429 65.9038 142.678C66.3878 142.678 66.8234 143.017 67.2832 143.138C76.3098 145.586 76.3098 145.586 76.697 154.458C76.7088 155.598 76.9784 156.72 77.4856 157.74C77.9928 158.761 78.7243 159.652 79.6252 160.349C83.1009 163.283 86.0691 166.772 88.4098 170.675C90.5823 173.477 92.9091 176.156 95.3794 178.698C96.9503 180.542 98.344 182.531 99.5418 184.637C99.9048 185.267 99.082 186.552 98.7916 187.522C97.9204 187.255 96.7588 187.231 96.3716 186.649C91.9188 181.292 87.6354 175.814 83.231 170.432C81.4117 168.173 79.404 166.073 77.2294 164.154C75.6134 162.914 74.3267 161.295 73.4827 159.439C72.6386 157.583 72.2632 155.548 72.3894 153.513C72.6072 149.077 72.3894 149.077 68.2028 147.744C64.5244 146.556 60.9428 145.32 57.3128 144.132L29.1682 158.337L32.7498 162.845C35.1308 165.564 36.6253 168.948 37.0332 172.541C37.1069 173.811 36.9174 175.082 36.4766 176.274C36.283 176.783 35.2182 177.22 34.5164 177.244C33.8146 177.268 33.1612 176.517 33.1612 176.129C33.3306 169.875 29.386 165.681 25.9012 161.173C25.5441 160.717 25.2864 160.191 25.1447 159.629C25.003 159.068 24.9804 158.482 25.0785 157.911C25.1765 157.34 25.393 156.796 25.714 156.314C26.0349 155.832 26.4532 155.423 26.9418 155.113C28.4171 153.864 30.0432 152.805 31.7818 151.962C37.1542 149.295 42.5992 146.774 47.9958 144.132C49.443 143.432 50.8346 142.621 52.1582 141.708C52.6331 141.468 53.0521 141.13 53.3874 140.716C53.7228 140.302 53.967 139.822 54.1041 139.307C54.2413 138.792 54.2681 138.254 54.183 137.728C54.0979 137.201 53.9026 136.699 53.6102 136.254C52.5958 134.275 52.145 132.054 52.3072 129.834C52.4694 127.615 53.2384 125.484 54.5298 123.673C56.5384 120.183 58.8858 116.886 61.4268 112.959C58.1114 112.014 55.0864 111.069 52.013 110.245C50.2948 109.784 48.504 109.59 46.7858 109.178C42.6234 108.233 41.7522 106.754 42.5992 102.585C43.8334 96.2338 45.1402 89.9314 46.4954 83.1927C44.269 82.7806 41.9458 82.1988 39.5984 81.9807C37.9733 81.8928 36.4045 81.3544 35.067 80.4256C33.7296 79.4968 32.676 78.2141 32.0238 76.7206C27.6678 68.1154 29.6038 70.0304 20.311 69.594C18.529 69.5856 16.7527 69.3906 15.0112 69.0123C13.8032 68.6219 12.724 67.9097 11.8894 66.9519C11.7152 66.6104 11.6243 66.2324 11.6243 65.849C11.6243 65.4655 11.7152 65.0875 11.8894 64.746C12.2282 64.237 13.4624 63.7037 13.898 63.9461C17.891 66.055 22.1744 65.3036 26.3368 65.3278C27.7204 65.2588 29.0941 65.5959 30.2892 66.2978C31.4843 66.9997 32.4488 68.0358 33.0644 69.2789C33.4195 69.8212 33.7195 70.3977 33.9598 71C34.5335 73.3054 35.9323 75.3195 37.8908 76.66C39.8492 78.0006 42.2308 78.5742 44.5836 78.2719C46.7193 78.5225 48.8066 79.086 50.7788 79.9445C55.6188 76.6236 60.6282 73.3028 65.5166 69.8122C68.7594 67.3882 68.953 66.5883 67.138 62.8553C65.7102 59.9465 63.75 57.2559 62.5642 54.2501C60.7282 49.9421 59.3022 45.4702 58.305 40.8939C57.2886 35.5126 58.1598 34.5915 63.145 32.2402C66.3394 30.7131 69.5096 29.1375 73.0912 27.3922C71.9538 24.1198 70.8406 21.114 69.8726 18.0598C68.9046 15.0056 68.106 12.2422 67.1622 9.16372C56.0786 10.2545 45.3822 15.151 34.2018 9.28491C30.3782 14.1329 25.756 18.181 26.4094 24.9682C26.5596 25.8626 26.402 26.7815 25.9622 27.5743C25.5225 28.3671 24.8269 28.9867 23.9894 29.3314C22.1094 30.268 20.1691 31.0779 18.1814 31.7554C13.6828 33.1573 9.4762 35.3667 5.76676 38.276C4.23014 39.3048 2.6113 40.2047 0.926762 40.9666C-1.00924 38.5426 0.491163 37.2579 1.77376 36.1186C5.60536 32.7213 10.0603 30.1032 14.8902 28.4103C17.165 27.6346 19.3672 26.6892 21.7388 25.7681C20.8192 18.1325 26.0706 13.2845 29.265 7.3942C28.1611 6.64012 27.0136 5.95212 25.8286 5.33379C22.7068 3.92787 21.7146 4.41268 19.1252 7.10332C16.2141 10.1327 13.1444 13.0052 9.92916 15.7085C8.54976 16.8478 6.37176 18.69 4.84716 16.6054C3.32256 14.5208 6.03296 13.5269 7.38816 12.2907C10.3439 9.74284 13.1555 7.03182 15.8098 4.17028C19.827 -0.386844 22.5858 -1.0898 28.176 1.47964C32.3307 3.63966 36.6621 5.43998 41.123 6.86091C44.5862 7.58522 48.1498 7.69189 51.65 7.17603C56.006 6.76395 60.2652 5.62467 64.597 4.94595C69.437 4.14603 70.5018 4.94596 71.857 9.67276C73.2122 14.3996 74.9062 19.5627 76.697 24.9197C77.9571 24.4213 79.1785 23.8298 80.3512 23.1502C86.2076 19.0779 92.064 14.9813 97.8236 10.812C99.082 9.89092 100.389 8.75164 101.502 10.3272C101.692 10.8946 101.736 11.5006 101.63 12.0895C101.524 12.6783 101.272 13.231 100.897 13.6966C98.982 15.6795 96.8743 17.466 94.605 19.0294C85.5638 25.4304 75.9661 31.0038 65.928 35.6823C61.8624 37.5972 61.814 37.6457 62.661 41.8877C63.145 44.3117 63.8952 46.4448 64.6938 49.1597C68.8562 47.6084 72.462 46.2509 76.0436 44.8692C78.0038 44.1178 79.9398 43.2694 81.9 42.4452C87.2966 40.3121 88.2888 40.3606 92.0882 44.6753C93.3484 46.1711 94.9826 47.3049 96.8236 47.9607C98.6647 48.6166 100.647 48.771 102.567 48.4083C107.552 47.8023 112.537 47.0751 117.522 46.5903C122.943 46.0328 124.516 47.366 125.17 52.7715C125.405 54.3763 125.511 55.9976 125.484 57.6195C125.274 61.6791 126.331 65.7035 128.509 69.1335C131.316 73.5936 130.494 76.9388 126.089 80.1142C122.29 82.8533 118.152 85.1319 113.989 87.5316C105.64 92.7675 105.35 93.8583 109.682 102.657C110.771 104.839 111.884 106.996 112.876 109.226C114.17 112.06 114.443 115.255 113.65 118.268C113.07 120.692 112.9 123.116 112.513 125.54C112.504 126.371 112.34 127.193 112.029 127.964C111.479 128.684 110.836 129.328 110.117 129.879C109.415 129.127 108.133 128.352 108.157 127.6C108.213 124.68 108.513 121.769 109.052 118.898C110.19 112.887 109.585 110.438 105.35 104.936Z" fill="#E3B891"/>
</svg>
