<svg width="824" height="390" viewBox="0 0 824 390" fill="none" xmlns="http://www.w3.org/2000/svg">
<path d="M21.4438 301.003C107.944 235.503 202.444 229.503 291.861 267.66C446.537 333.665 545.967 237.188 579.784 173.43C711.944 -1.49993 759.444 19.4997 779.943 19.4996" stroke="black" stroke-width="4" stroke-dasharray="13 13"/>
<circle cx="277.443" cy="262.003" r="10" fill="#306049"/>
<circle cx="497.443" cy="262.003" r="10" fill="#306049"/>
<path d="M39.4434 300.504C39.4434 309.893 31.8322 317.504 22.4434 317.504C13.0545 317.504 5.44336 309.893 5.44336 300.504C5.44336 291.115 13.0545 283.504 22.4434 283.504C31.8322 283.504 39.4434 291.115 39.4434 300.504Z" fill="#306049"/>
<circle cx="640.943" cy="96.5" r="11.5" fill="#306049"/>
<circle cx="776.443" cy="17" r="17" fill="#306049"/>
</svg>
