<svg width="276" height="48" viewBox="0 0 276 48" fill="none" xmlns="http://www.w3.org/2000/svg">
<path d="M24.3684 2.95898L17.6354 16.6026L2.58594 18.7779L13.4772 29.4028L10.9023 44.393L24.3684 37.3196L37.8344 44.393L35.2596 29.4028L46.1508 18.7927L31.1014 16.6026L24.3684 2.95898Z" fill="#E3B891"/>
<path d="M81.1731 2.95898L74.44 16.6026L59.3906 18.7779L70.2819 29.4028L67.707 44.393L81.1731 37.3196L94.6391 44.393L92.0643 29.4028L102.956 18.7927L87.9061 16.6026L81.1731 2.95898Z" fill="#E3B891"/>
<path d="M138.009 2.95898L131.276 16.6026L116.227 18.7779L127.118 29.4028L124.543 44.393L138.009 37.3196L151.475 44.393L148.9 29.4028L159.791 18.7927L144.742 16.6026L138.009 2.95898Z" fill="#E3B891"/>
<path d="M194.837 2.95898L188.104 16.6026L173.055 18.7779L183.946 29.4028L181.371 44.393L194.837 37.3196L208.303 44.393L205.728 29.4028L216.62 18.7927L201.57 16.6026L194.837 2.95898Z" fill="#E3B891"/>
<path d="M251.642 2.95898L244.909 16.6026L229.859 18.7779L240.751 29.4028L238.176 44.393L251.642 37.3196L265.108 44.393L262.533 29.4028L273.424 18.7927L258.375 16.6026L251.642 2.95898Z" fill="#E3B891"/>
</svg>
