<svg width="120" height="120" viewBox="0 0 120 120" fill="none" xmlns="http://www.w3.org/2000/svg">
<path d="M60 0L61.2234 35.0971C61.4988 43.0094 70.9542 46.926 76.7442 41.5261L102.427 17.5736L78.474 43.2559C73.074 49.0457 76.9908 58.5011 84.903 58.7769L120 60L84.903 61.2234C76.9908 61.4988 73.074 70.9542 78.474 76.7442L102.427 102.427L76.7442 78.474C70.9542 73.074 61.4988 76.9908 61.2234 84.903L60 120L58.7769 84.903C58.5011 76.9908 49.0457 73.074 43.2559 78.474L17.5736 102.427L41.5261 76.7442C46.926 70.9542 43.0094 61.4988 35.0971 61.2234L0 60L35.0971 58.7769C43.0094 58.5011 46.926 49.0457 41.5261 43.2559L17.5736 17.5736L43.2559 41.5261C49.0457 46.926 58.5011 43.0094 58.7769 35.0971L60 0Z" fill="#E3B891"/>
</svg>
