<svg width="120" height="120" viewBox="0 0 120 120" fill="none" xmlns="http://www.w3.org/2000/svg">
<g clip-path="url(#clip0_1_1012)">
<path d="M83.2877 54.3585C97.8331 40.4707 105.452 33.9607 119.478 22.0258C102.162 30.4887 86.2313 35.2627 74.9755 38.9517C76.1877 24.4128 76.8804 10.0909 77.9198 0.542969C74.4562 7.05291 63.201 35.0457 59.9108 38.5176C53.3308 31.3567 50.0407 26.5828 45.5386 21.1578C46.5775 28.7527 45.8849 36.3477 46.058 47.1976C33.4174 45.2446 18.8719 42.6406 0.34375 39.1687C16.2745 46.9806 27.5299 55.2265 40.5169 62.3874C34.4563 69.9824 30.8199 76.2752 18.6987 89.2952C28.742 85.6064 34.8026 83.8702 49.1749 78.2287C49.3481 88.4271 50.3871 104.919 50.2139 119.458C53.6771 112.948 59.7377 90.3806 63.5471 81.2666C69.9543 88.6444 73.0713 91.2479 79.1319 99.4945C78.0925 91.8996 76.0149 84.5211 74.4562 74.1054C76.5343 73.8884 86.5774 74.9734 119.132 79.9641C102.335 68.4634 96.7937 62.8214 83.2877 54.3585Z" fill="#E3B891"/>
</g>
<defs>
<clipPath id="clip0_1_1012">
<rect width="120" height="120" fill="white"/>
</clipPath>
</defs>
</svg>
